<?xml version="1.0" encoding="iso-8859-1"?>
<!-- Generator: Adobe Illustrator 16.0.0, SVG Export Plug-In . SVG Version: 6.00 Build 0)  -->
<!DOCTYPE svg PUBLIC "-//W3C//DTD SVG 1.1//EN" "http://www.w3.org/Graphics/SVG/1.1/DTD/svg11.dtd">
<svg version="1.1" id="Capa_1" xmlns="http://www.w3.org/2000/svg" xmlns:xlink="http://www.w3.org/1999/xlink" x="0px" y="0px"
	 width="45.944px" height="45.945px" viewBox="0 0 45.944 45.945" style="enable-background:new 0 0 45.944 45.945;"
	 xml:space="preserve">
<g fill="#fff">
	<path d="M45.055,20.047L30.924,7.866c-0.434-0.375-1.08-0.388-1.516-0.009l-14.197,12.19c-0.803,0.7-1.104,1.726-0.729,2.723
		c0.231,0.615,0.953,1.342,1.578,1.577L0.676,24.339C0.304,24.339,0,24.697,0,25.124L0.028,37.56c0,0.428,0.304,0.806,0.676,0.806
		h16.99h24.317c0.429,0,0.74-0.379,0.74-0.806V24.333h0.639c1.068,0,2.022-0.563,2.396-1.563
		C46.156,21.769,45.865,20.743,45.055,20.047z M14.06,32.098c0,0.295-0.239,0.505-0.534,0.505h-6.95
		c-0.296,0-0.534-0.21-0.534-0.505v-2.941c0-0.295,0.238-0.562,0.534-0.562h6.95c0.295,0,0.534,0.269,0.534,0.562V32.098z
		 M32.979,32.76c0,0.328-0.268,0.594-0.595,0.594h-4.198c-0.328,0-0.595-0.267-0.595-0.594v-4.198c0-0.329,0.267-0.595,0.595-0.595
		h4.198c0.327,0,0.595,0.266,0.595,0.595V32.76z"/>
</g>
<g>
</g>
<g>
</g>
<g>
</g>
<g>
</g>
<g>
</g>
<g>
</g>
<g>
</g>
<g>
</g>
<g>
</g>
<g>
</g>
<g>
</g>
<g>
</g>
<g>
</g>
<g>
</g>
<g>
</g>
</svg>
